# xmcd
#
# Track frame offsets: 
#        150
#        19802
#        36070
#        48583
#        65231
#        81631
#        98518
#        113430
#        130864
#        146907
#
# Disc length: 2188 seconds
#
# Revision: 0
# Processed by: cddbd v1.5.2PL0 Copyright (c) Steve Scherf et al.
# Submitted via: ExactAudioCopy v0.95b3
#
DISCID=8b088a0a
DTITLE=Stephen Stills  - Thoroughfare Gap Album  
DYEAR=1900
DGENRE=
TTITLE0=You Can't Dance Alone
TTITLE1=Thoroughfare Gap
TTITLE2=We Will Go On
TTITLE3=Beaucoup Yumbo
TTITLE4=What's The Game
TTITLE5=Midnight Rider
TTITLE6=Woman Lleva
TTITLE7=Lowdown
TTITLE8=Not Fade Away
TTITLE9=Can't Get No Booty
EXTD=
EXTT0=
EXTT1=
EXTT2=
EXTT3=
EXTT4=
EXTT5=
EXTT6=
EXTT7=
EXTT8=
EXTT9=
PLAYORDER=
